<?xml version="1.0" encoding="UTF-8" standalone="no"?>
<!-- Created with Inkscape (http://www.inkscape.org/) -->

<svg
   width="108"
   height="108"
   id="svg2"
   version="1.1"
   inkscape:version="1.1.2 (0a00cf5339, 2022-02-04)"
   sodipodi:docname="icon.svg"
   inkscape:export-filename="/home/bbou/Desktop/wordnet.png"
   inkscape:export-xdpi="57.252365"
   inkscape:export-ydpi="57.252365"
   xmlns:inkscape="http://www.inkscape.org/namespaces/inkscape"
   xmlns:sodipodi="http://sodipodi.sourceforge.net/DTD/sodipodi-0.dtd"
   xmlns="http://www.w3.org/2000/svg"
   xmlns:svg="http://www.w3.org/2000/svg"
   xmlns:rdf="http://www.w3.org/1999/02/22-rdf-syntax-ns#"
   xmlns:cc="http://creativecommons.org/ns#"
   xmlns:dc="http://purl.org/dc/elements/1.1/">
  <sodipodi:namedview
     id="base"
     pagecolor="#ffffff"
     bordercolor="#666666"
     borderopacity="1.0"
     inkscape:pageopacity="0.0"
     inkscape:pageshadow="2"
     inkscape:zoom="1.4221546"
     inkscape:cx="-33.400026"
     inkscape:cy="82.621116"
     inkscape:document-units="px"
     inkscape:current-layer="layer1"
     showgrid="false"
     inkscape:window-width="1920"
     inkscape:window-height="1113"
     inkscape:window-x="0"
     inkscape:window-y="25"
     inkscape:window-maximized="1"
     fit-margin-top="0"
     fit-margin-left="0"
     fit-margin-right="0"
     fit-margin-bottom="0"
     borderlayer="true"
     showguides="true"
     inkscape:guide-bbox="true"
     inkscape:pagecheckerboard="0"
     width="108px" />
  <defs
     id="defs" />
  <metadata
     id="metadata7">
    <rdf:RDF>
      <cc:Work
         rdf:about="">
        <dc:format>image/svg+xml</dc:format>
        <dc:type
           rdf:resource="http://purl.org/dc/dcmitype/StillImage" />
      </cc:Work>
    </rdf:RDF>
  </metadata>
  <g
     inkscape:label="Layer"
     inkscape:groupmode="layer"
     id="layer1"
     transform="translate(-197.70208,76.745461)">
    <g
       id="g10441"
       transform="matrix(0.23086161,0,0,0.23073614,241.0622,-146.92388)"
       style="stroke:#ffa500">
      <ellipse
         ry="143.60815"
         rx="143.52534"
         cy="538.18365"
         cx="46.087704"
         style="fill:none;stroke:#ffa500;stroke-width:16.1609;stroke-miterlimit:4;stroke-dasharray:none;stroke-opacity:1"
         id="ellipse10419" />
      <path
         sodipodi:nodetypes="cccccccccccc"
         inkscape:connector-curvature="0"
         id="path10423"
         d="m -52.149993,538.87733 c 64.797616,0.28502 129.595231,0.57003 194.392863,0.85505 M 44.682378,641.30326 c 0.243947,-68.34766 0.487894,-136.6953 0.731851,-205.04295 m -59.895339,22.75193 c 31.826687,45.91009 31.589525,112.33723 -0.563825,157.96677 m 119.626385,0.52617 C 72.754756,571.5951 72.991917,505.16796 105.14527,459.53842 M -51.851943,538.54353 C -4.5962499,477.34274 95.800594,478.10256 142.6293,539.72808 m -0.31441,0.22216 C 95.059176,601.15102 -5.0240479,600.39257 -51.852743,538.76706"
         style="fill:none;stroke:#ffa500;stroke-width:12.7254;stroke-opacity:1" />
      <ellipse
         ry="17.920031"
         rx="17.870319"
         cy="438.42767"
         cx="-466.94287"
         style="fill:#ffa500;fill-opacity:1;stroke:#ffa500;stroke-width:0.0792823"
         id="ellipse10425"
         transform="matrix(-0.72081244,-0.69313016,-0.66514612,0.74671323,0,0)" />
      <ellipse
         transform="matrix(-0.72081244,-0.69313016,-0.66514612,0.74671323,0,0)"
         id="ellipse10427"
         style="fill:#ffa500;fill-opacity:1;stroke:#ffa500;stroke-width:0.0792823"
         cx="-478.92422"
         cy="278.43362"
         rx="17.870319"
         ry="17.920031" />
      <ellipse
         transform="matrix(-0.72081244,-0.69313016,-0.66514612,0.74671323,0,0)"
         id="ellipse10429"
         style="fill:#ffa500;fill-opacity:1;stroke:#ffa500;stroke-width:0.0792823"
         cx="-306.6351"
         cy="436.62354"
         rx="17.870319"
         ry="17.920031" />
      <ellipse
         transform="matrix(-0.72081244,-0.69313016,-0.66514612,0.74671323,0,0)"
         id="ellipse10431"
         style="fill:#ffa500;fill-opacity:1;stroke:#ffa500;stroke-width:0.0792823"
         cx="-399.74319"
         cy="466.78085"
         rx="17.870319"
         ry="17.920031" />
      <ellipse
         ry="17.920031"
         rx="17.870319"
         cy="340.65161"
         cx="-281.89261"
         style="fill:#ffa500;fill-opacity:1;stroke:#ffa500;stroke-width:0.0792823"
         id="ellipse10433"
         transform="matrix(-0.72081244,-0.69313016,-0.66514612,0.74671323,0,0)" />
      <ellipse
         transform="matrix(-0.72081244,-0.69313016,-0.66514612,0.74671323,0,0)"
         id="ellipse10435"
         style="fill:#ffa500;fill-opacity:1;stroke:#ffa500;stroke-width:0.0792823"
         cx="-385.00516"
         cy="247.76277"
         rx="17.870319"
         ry="17.920031" />
      <ellipse
         ry="17.920031"
         rx="17.870319"
         cy="375.022"
         cx="-500.97342"
         style="fill:#4c0000;fill-opacity:1;stroke:#ffa500;stroke-width:0.0792823"
         id="ellipse10437"
         transform="matrix(-0.72081244,-0.69313016,-0.66514612,0.74671323,0,0)" />
      <ellipse
         transform="matrix(-0.72081244,-0.69313016,-0.66514612,0.74671323,0,0)"
         id="ellipse10439"
         style="fill:#ffa500;fill-opacity:1;stroke:#ffa500;stroke-width:0.0792823"
         cx="-500.97342"
         cy="375.022"
         rx="17.870319"
         ry="17.920031" />
      <ellipse
         transform="matrix(-0.72081244,-0.69313016,-0.66514612,0.74671323,0,0)"
         id="ellipse10421"
         style="fill:#ffa500;fill-opacity:1;stroke:#ffa500;stroke-width:0.0792823"
         cx="-317.02222"
         cy="275.43076"
         rx="17.870319"
         ry="17.920031" />
    </g>
  </g>
  <style
     id="style8"
     type="text/css">
		.Border { fill: lightGray; stroke: black; stroke-width: 4; }
		.Label { font-size:24; font-family:Arial; fill:black; }
	</style>
</svg>
